<!DOCTYPE svg PUBLIC "-//W3C//DTD SVG 1.1//EN" "http://www.w3.org/Graphics/SVG/1.1/DTD/svg11.dtd">

<!-- Source: https://www.svgrepo.com/svg/382663/earth-global-globe-planet-world-2 -->
<!-- Uploaded to: SVG Repo, www.svgrepo.com, Transformed by: SVG Repo Mixer Tools -->
<svg fill="#000000" width="800px" height="800px" viewBox="0 0 32 32" id="OBJECT" xmlns="http://www.w3.org/2000/svg">

<g id="SVGRepo_bgCarrier" stroke-width="0"/>

<g id="SVGRepo_tracerCarrier" stroke-linecap="round" stroke-linejoin="round"/>

<g id="SVGRepo_iconCarrier">

<title/>

<path d="M28.19,24.7a6.54,6.54,0,0,0-6.06.32l-.67.38a3,3,0,0,1-4-.95A1,1,0,0,0,16.6,24a1,1,0,0,0-1,.73A10.61,10.61,0,0,0,15.53,31L16,31A15,15,0,0,0,28.19,24.7Z"/>

<path d="M26.37,16.06a2,2,0,0,0-1.7-1.42l-2.14-.17A3.94,3.94,0,0,1,19,9.76a7.89,7.89,0,0,0,.15-1.51A7.3,7.3,0,0,0,16.91,3l-2-2A14.78,14.78,0,0,0,8.63,2.9a8.7,8.7,0,0,1,.73,6.38A6.79,6.79,0,0,0,9.13,11a6.65,6.65,0,0,0,1.55,4.27l.2.25A8.6,8.6,0,0,1,12.66,23l-1.61,7.1a14.36,14.36,0,0,0,2.36.62A12.32,12.32,0,0,1,13.1,28a13,13,0,0,1,.6-3.86A3.06,3.06,0,0,1,16.6,22a2.9,2.9,0,0,1,2.49,1.35,1,1,0,0,0,1.37.32l.67-.39a8.54,8.54,0,0,1,8.13-.3,15,15,0,0,0,1.44-4h-.63A3.93,3.93,0,0,1,26.37,16.06Z"/>

<path d="M17.82,1.06l.48.47a9.39,9.39,0,0,1,2.84,6.72,9.56,9.56,0,0,1-.19,1.9,2,2,0,0,0,1.75,2.33l2.15.17a3.9,3.9,0,0,1,3.44,2.88,2,2,0,0,0,1.81,1.41H31c0-.33.05-.65.05-1A15,15,0,0,0,17.82,1.06Z"/>

<path d="M10.71,22.59a6.63,6.63,0,0,0-1.36-5.75l-.21-.25A8.73,8.73,0,0,1,7.43,8.75,6.66,6.66,0,0,0,7,4,15,15,0,0,0,9.18,29.34l1.53-6.75Z"/>

</g>

</svg>