<!DOCTYPE svg PUBLIC "-//W3C//DTD SVG 1.1//EN" "http://www.w3.org/Graphics/SVG/1.1/DTD/svg11.dtd">

<!-- Source: https://www.svgrepo.com/svg/167430/dna-strand -->
<!-- Uploaded to: SVG Repo, www.svgrepo.com, Transformed by: SVG Repo Mixer Tools -->
<svg fill="#000000" version="1.1" id="Capa_1" xmlns="http://www.w3.org/2000/svg" xmlns:xlink="http://www.w3.org/1999/xlink" width="256px" height="256px" viewBox="0 0 45 45" xml:space="preserve" stroke="#000000" stroke-width="0.00045000000000000004">

<g id="SVGRepo_bgCarrier" stroke-width="0"/>

<g id="SVGRepo_tracerCarrier" stroke-linecap="round" stroke-linejoin="round"/>

<g id="SVGRepo_iconCarrier"> <g> <path d="M37.438,37c-1.896,0-3.742-0.154-5.519-0.443c4.164-3.826,6.631-8.69,6.631-14.057s-2.467-10.23-6.631-14.057 C33.693,8.154,35.542,8,37.438,8c2.209,0,4-1.791,4-4s-1.791-4-4-4C31.986,0,26.908,0.975,22.5,2.698 C18.094,0.973,13.014,0,7.563,0c-2.209,0-4,1.791-4,4s1.791,4,4,4c1.895,0,3.742,0.154,5.518,0.443 C8.916,12.27,6.449,17.135,6.449,22.5s2.467,10.23,6.631,14.057C11.307,36.846,9.457,37,7.562,37c-2.209,0-4,1.791-4,4s1.791,4,4,4 c5.451,0,10.53-0.975,14.938-2.698C26.906,44.027,31.986,45,37.438,45c2.209,0,4-1.791,4-4S39.646,37,37.438,37z M30.421,21H14.579 c0.2-1.168,0.632-2.299,1.264-3.375h13.315C29.789,18.701,30.221,19.832,30.421,21z M14.579,24h15.842 c-0.2,1.168-0.633,2.299-1.264,3.375H15.843C15.211,26.299,14.779,25.168,14.579,24z M26.734,14.625h-8.469 c1.187-1.129,2.614-2.152,4.233-3.04C24.119,12.473,25.548,13.496,26.734,14.625z M18.266,30.375h8.469 c-1.188,1.129-2.614,2.152-4.233,3.04C20.881,32.527,19.453,31.504,18.266,30.375z"/> </g> </g>

</svg>