<!DOCTYPE svg PUBLIC "-//W3C//DTD SVG 1.1//EN" "http://www.w3.org/Graphics/SVG/1.1/DTD/svg11.dtd">

<!-- Source: https://www.svgrepo.com/svg/374948/light-bulb -->
<!-- Uploaded to: SVG Repo, www.svgrepo.com, Transformed by: SVG Repo Mixer Tools -->
<svg fill="#feffe5" width="800px" height="800px" viewBox="-5.2 -5.2 62.40 62.40" xmlns="http://www.w3.org/2000/svg" stroke="#feffe5" stroke-width="1.5079999999999998">

<g id="SVGRepo_bgCarrier" stroke-width="0">

<rect x="-5.2" y="-5.2" width="62.40" height="62.40" rx="31.2" fill="#424238" strokewidth="0"/>

</g>

<g id="SVGRepo_tracerCarrier" stroke-linecap="round" stroke-linejoin="round"/>

<g id="SVGRepo_iconCarrier">

<path d="M24.12,2.69A16.11,16.11,0,0,0,9.69,17a15.9,15.9,0,0,0,5.85,13.65,4.92,4.92,0,0,1,1.87,3.82v.08a4,4,0,0,0,4.05,4h9a4,4,0,0,0,4.05-4v-.08a4.92,4.92,0,0,1,1.87-3.82,15.88,15.88,0,0,0,5.93-12.24C42.36,9.09,34,1.68,24.12,2.69ZM33,43.16H19a1.56,1.56,0,0,0-1.56,1.56,4.69,4.69,0,0,0,4.68,4.68h7.8a4.69,4.69,0,0,0,4.68-4.68A1.56,1.56,0,0,0,33,43.16Z"/>

</g>

</svg>