<!DOCTYPE svg PUBLIC "-//W3C//DTD SVG 1.1//EN" "http://www.w3.org/Graphics/SVG/1.1/DTD/svg11.dtd">

<!-- Source: https://www.svgrepo.com/svg/382687/environment-forest-leaf-nature-tree -->
<!-- Uploaded to: SVG Repo, www.svgrepo.com, Transformed by: SVG Repo Mixer Tools -->
<svg fill="#000000" width="800px" height="800px" viewBox="0 0 32 32" id="OBJECT" xmlns="http://www.w3.org/2000/svg">

<g id="SVGRepo_bgCarrier" stroke-width="0"/>

<g id="SVGRepo_tracerCarrier" stroke-linecap="round" stroke-linejoin="round"/>

<g id="SVGRepo_iconCarrier">

<title/>

<path d="M28,25H25V21.92A7,7,0,0,0,31,15c0-3.46-2.79-12-7-12a3.52,3.52,0,0,0-2.07.73A30.55,30.55,0,0,1,25,15a9,9,0,0,1-3,6.7,7.84,7.84,0,0,0,1,.23V25H17V21.92A7,7,0,0,0,23,15c0-3-2.55-14-7-14S9,12,9,15a7,7,0,0,0,6,6.92V25H9V21.93a7.84,7.84,0,0,0,1-.23A9,9,0,0,1,7,15,30.55,30.55,0,0,1,10.07,3.73,3.52,3.52,0,0,0,8,3C3.79,3,1,11.54,1,15a7,7,0,0,0,6,6.92V25H4a3,3,0,0,0-3,3v2a1,1,0,0,0,1,1H30a1,1,0,0,0,1-1V28A3,3,0,0,0,28,25Z"/>

</g>

</svg>