<?xml version="1.0" standalone="no"?>
<!DOCTYPE svg PUBLIC "-//W3C//DTD SVG 20010904//EN"
 "http://www.w3.org/TR/2001/REC-SVG-20010904/DTD/svg10.dtd">
<svg version="1.0" xmlns="http://www.w3.org/2000/svg"
 width="550.000000pt" height="550.000000pt" viewBox="0 0 550.000000 550.000000"
 preserveAspectRatio="xMidYMid meet">
<metadata>
Created by potrace 1.14, written by Peter Selinger 2001-2017
</metadata>
<g transform="translate(0.000000,550.000000) scale(0.100000,-0.100000)"
fill="#000000" stroke="none">
<path d="M2648 4936 c-2 -2 -48 -6 -103 -9 -55 -3 -146 -15 -201 -27 -96 -19
-103 -19 -140 -3 -59 26 -176 23 -238 -6 -41 -19 -136 -103 -136 -121 0 -3
-24 -6 -54 -7 -104 -3 -199 -72 -243 -175 -7 -15 -54 -56 -110 -96 -151 -108
-254 -202 -387 -355 -75 -87 -191 -259 -227 -336 -27 -58 -27 -58 -164 -65
-108 -6 -131 -9 -245 -32 -173 -34 -304 -95 -336 -156 -37 -71 -13 -141 84
-251 34 -38 96 -121 138 -185 48 -73 109 -147 159 -197 l82 -80 6 -180 c16
-462 133 -815 402 -1211 101 -149 295 -354 442 -466 43 -32 85 -65 93 -72 34
-27 202 -127 286 -169 181 -91 434 -172 599 -193 22 -3 45 -7 52 -9 34 -11
176 -20 318 -20 208 0 295 9 485 50 33 7 86 19 90 20 3 1 25 7 50 15 25 7 50
14 55 15 82 18 482 210 493 237 2 4 8 8 13 8 11 0 171 117 254 184 64 53 186
174 255 255 48 56 75 91 147 191 68 95 181 310 228 435 20 54 50 149 66 209
29 113 31 123 48 236 20 132 22 151 25 288 l4 140 114 113 c63 63 133 141 156
174 22 33 79 105 126 160 107 125 148 202 140 264 -10 79 -57 123 -176 160
-148 47 -310 69 -523 71 l-90 0 -48 88 c-50 92 -142 225 -217 314 -61 73 -256
267 -305 303 -22 17 -51 40 -65 53 -14 12 -33 25 -43 28 -10 3 -29 29 -42 58
-47 103 -126 164 -224 173 -52 5 -60 10 -107 59 -90 94 -204 125 -320 85 -61
-20 -62 -20 -160 -1 -55 10 -122 21 -150 25 -55 6 -350 15 -356 11z"/>
</g>
</svg>
